<svg width="32" height="32" viewBox="0 0 32 32" fill="none" xmlns="http://www.w3.org/2000/svg">
<path d="M13.2023 24.7543C13.5641 25.3727 14.2101 25.8891 14.7269 25.9779C14.9465 26.0174 15.15 25.9977 15.2954 25.9286C15.5215 25.82 15.6152 25.4319 15.5215 25.0174C15.4149 24.5602 15.205 24.2641 14.7237 23.9056C14.5363 23.7641 14.3425 23.5931 14.2973 23.524C14.1035 23.2378 14.0583 22.9681 14.181 22.8102C14.2585 22.7082 14.223 22.7017 14.8109 22.9253C15.2857 23.1063 15.7702 23.2017 16.0512 23.1721L16.4065 23.1359C16.5034 23.126 16.529 23.1271 16.529 23.1271C16.529 23.1271 16.8717 23.0207 16.891 23.0207C16.9072 23.0207 16.9976 22.9878 17.0913 22.9517C17.4757 22.7938 17.6889 22.7313 17.7405 22.7609C17.8374 22.8201 17.8697 23.001 17.8148 23.1984C17.7438 23.4484 17.5984 23.6227 17.2463 23.899C16.8717 24.1885 16.7392 24.3332 16.5906 24.6227C16.4518 24.8957 16.3936 25.1523 16.413 25.4089C16.4485 25.899 16.7134 26.0799 17.2367 25.9681C17.621 25.8858 17.9053 25.7247 18.2606 25.3858C18.6482 25.0174 18.9195 24.5569 19.0584 24.024C19.1165 23.8003 19.1327 23.6293 19.1521 22.8892C19.1715 22.024 19.1747 22.0142 19.2748 21.7148C19.3976 21.3497 19.5365 21.0635 19.937 20.353C20.4086 19.5142 20.5123 19.2448 20.5123 19.2448C20.5123 19.2448 20.8963 18.1951 20.9771 17.5701C21.032 17.1425 21.0449 16.0471 20.9932 16.0471C20.9771 16.0471 20.9609 16.0603 20.9609 16.0767C20.9609 16.1195 20.5152 16.455 20.2503 16.6096C20.1243 16.6853 19.8239 16.8234 19.5784 16.9188L19.1359 17.0932L19.0326 17.3004C18.9066 17.5636 18.7451 18.0504 18.5642 18.7116L18.4253 19.2214L18.4156 18.5307C18.3962 16.9879 18.632 16.0142 19.1973 15.3202C19.5655 14.8629 20.4086 14.3268 21.1224 14.0899C21.2193 14.057 21.3098 14.0274 21.3227 14.0175C21.3356 14.011 21.271 13.886 21.1773 13.7412L21.0094 13.4748C21.0094 13.4748 20.864 13.1853 20.7865 13.0176C20.5862 12.5834 20.4247 12.0899 20.3246 11.6097C20.1728 10.8663 20.218 9.84654 20.4409 9.03076C20.4409 9.03076 20.5991 8.49459 20.6508 8.34985C20.7445 8.08012 21.1192 7.28736 21.2678 7.04066L21.355 6.89921L21.2613 6.92224C20.6379 7.06697 19.9984 7.28407 19.4848 7.52749L19.123 7.69854L18.9324 8.23143C18.3672 9.7972 17.7664 12.0044 16.975 15.4386C16.7941 16.2281 16.2676 18.1293 16.1481 18.5241C16.0706 18.7543 15.9963 18.9517 15.9834 18.9583C15.9479 18.9813 15.6862 18.182 15.4892 17.4616C15.3955 17.1096 15.1597 16.1623 14.9692 15.3564C14.4717 13.2544 13.984 11.2939 13.774 10.5571C13.4381 9.37944 12.9052 7.79394 12.8115 7.70183C12.7598 7.6492 12.0976 7.34986 11.7553 7.22486C11.4839 7.12618 10.6506 6.89921 10.6312 6.91895C10.6247 6.92224 10.6764 7.01434 10.741 7.1196C10.909 7.38934 11.2094 8.04064 11.3483 8.44196C11.6164 9.22484 11.7326 9.86628 11.7326 10.6031C11.7326 11.7117 11.4096 12.7709 10.7539 13.8037C10.6635 13.9452 10.6344 14.0143 10.6635 14.0241C11.4969 14.307 12.0686 14.636 12.5498 15.1031C13.1248 15.659 13.3961 16.3234 13.5156 17.4846C13.5673 17.9715 13.5802 19.2543 13.535 19.1721C13.5189 19.1458 13.4478 18.8958 13.3735 18.6195C13.2249 18.057 13.0344 17.4945 12.9084 17.2445C12.8438 17.1129 12.8018 17.0734 12.7081 17.0438C12.6015 17.0076 12.4885 16.9715 12.4885 16.9715L12.3593 16.9188C12.3593 16.9188 12.0524 16.784 11.9297 16.7215C11.6519 16.5833 11.2869 16.3333 11.1125 16.1721C11.0414 16.1031 10.9736 16.0471 10.9607 16.0471C10.9187 16.0471 10.9736 17.5372 11.0253 17.8168C11.19 18.7182 11.3967 19.2247 12.1041 20.4879C12.7307 21.5997 12.805 21.8398 12.7953 22.7247C12.7856 23.6622 12.9019 24.2444 13.2023 24.7543Z" fill="#909D63"/>
<path d="M23.958 12.1944C23.5338 12.5131 23.1096 13.0294 22.8512 13.5506L21.6216 13.8856L21.2757 13.0971C21.0162 12.659 20.9131 11.972 20.7985 11.3421C20.7424 11.0333 20.7424 10.2724 20.8009 9.93395C20.896 9.37316 21.0691 8.8272 21.3129 8.3257L21.464 8.0169C21.464 8.0169 21.6635 7.64736 21.8342 7.41658C22.0048 7.1858 22.4071 6.86074 22.4071 6.86074C23.0409 6.40371 23.4135 6.21349 24.077 6.0702C24.3939 6.03067 25.5231 5.97386 25.8132 6.01338L25.831 6.01607C25.9474 6.03363 26.1317 6.06143 26.2544 6.08255C26.2544 6.08255 26.7786 6.18384 27.1052 6.27772C28.4192 6.66557 29.6869 7.52034 30.5402 8.59992C31.2642 9.51398 31.764 10.6726 31.9322 11.8189C32.0272 12.4735 32.0224 13.3382 31.9175 13.9607C31.6104 15.8012 30.4695 17.3971 28.9214 18.1506C28.4314 18.3902 27.9536 18.5286 27.3905 18.5953C27.0223 18.6397 26.2544 18.6126 25.9229 18.5459C25.4572 18.4495 24.9307 18.2469 24.6064 18.0369C23.5313 17.3403 22.9365 16.2953 22.9365 15.0971C22.9365 14.2572 23.1632 13.6519 23.6776 13.1134C23.9848 12.7898 24.3553 12.5699 24.76 12.4637C24.9672 12.4093 25.5109 12.3747 25.6986 12.4019C25.8083 12.4192 25.8132 12.4241 25.8132 12.5007C25.8132 12.5748 25.801 12.5872 25.6864 12.6415C24.938 12.9923 24.465 13.689 24.4602 14.4425C24.4602 14.7661 24.5114 14.9884 24.6649 15.3195C25.0014 16.0384 25.723 16.5621 26.6298 16.7424C26.8858 16.7943 27.4831 16.7869 27.7391 16.7326C28.1974 16.6313 28.685 16.4163 29.0677 16.1446C29.3383 15.9494 29.7991 15.485 29.9916 15.2108C30.6304 14.3017 30.9253 13.0986 30.7742 12.0239C30.6474 11.1469 30.2964 10.2749 29.7942 9.60538C29.7113 9.49421 29.3846 9.094 29.3846 9.094C29.3846 9.094 29.27 8.99272 29.1652 8.89637C28.6313 8.40722 28.0584 8.05889 27.3953 7.81926C26.5348 7.50799 25.662 7.42894 24.8965 7.58951C24.2042 7.7328 23.5606 8.08113 23.0706 8.57521C22.3173 9.33857 21.9882 10.4058 22.21 11.3668C22.2783 11.6583 22.3685 11.9226 22.3977 11.9226C22.4099 11.9226 22.466 11.8485 22.5269 11.7571C22.7268 11.4533 23.2534 10.9098 23.3436 10.8851C23.3631 10.8604 23.6069 10.6998 23.6825 10.6257C23.7654 10.5516 24.0896 10.3564 24.3626 10.2428C24.6259 10.1341 24.9892 10.0377 25.2963 9.99324C25.5011 9.96359 26.3105 9.97594 26.4129 10.0081C26.5445 10.0451 26.7542 10.0772 26.9736 10.1538C27.6416 10.3885 28.2144 10.8357 28.6118 11.4335C29.2578 12.4019 29.3578 13.7458 28.8605 14.7513C28.5338 15.4134 28.017 15.8704 27.349 16.0853C27.171 16.1446 27.0882 16.1545 26.7591 16.1668C26.5104 16.1742 26.3202 16.1668 26.2227 16.1495C25.9838 16.1026 25.9838 16.1026 25.9838 16.0161C25.9838 15.9396 25.9936 15.9346 26.1959 15.8531C26.5055 15.732 26.7225 15.5912 26.9468 15.3689C27.8415 14.4795 27.8488 13.1208 26.9614 12.2438C26.4324 11.7225 25.6571 11.5175 24.9477 11.7077C24.643 11.7917 24.2286 11.9943 23.958 12.1944Z" fill="#6B7C5E"/>
<path d="M8.04204 12.1944C8.46622 12.5131 8.89041 13.0294 9.14882 13.5506L10.3784 13.8856L10.7243 13.0971C10.9838 12.659 11.0869 11.972 11.2015 11.3421C11.2576 11.0333 11.2576 10.2724 11.1991 9.93395C11.104 9.37316 10.9309 8.8272 10.6871 8.3257L10.536 8.0169C10.536 8.0169 10.3365 7.64736 10.1658 7.41658C9.99518 7.1858 9.59294 6.86074 9.59294 6.86074C8.9591 6.40371 8.58654 6.21349 7.92301 6.0702C7.60609 6.03067 6.47694 5.97386 6.18683 6.01338L6.16901 6.01607C6.05264 6.03363 5.86832 6.06143 5.74558 6.08255C5.74558 6.08255 5.22144 6.18384 4.89477 6.27772C3.58077 6.66557 2.31309 7.52034 1.45984 8.59992C0.7358 9.51398 0.23604 10.6726 0.0678286 11.8189C-0.0272475 12.4735 -0.0223717 13.3382 0.0824559 13.9607C0.389625 15.8012 1.53054 17.3971 3.07857 18.1506C3.56858 18.3902 4.0464 18.5286 4.60954 18.5953C4.97766 18.6397 5.74558 18.6126 6.07713 18.5459C6.54276 18.4495 7.06933 18.2469 7.39357 18.0369C8.46866 17.3403 9.0635 16.2953 9.0635 15.0971C9.0635 14.2572 8.83677 13.6519 8.32239 13.1134C8.01522 12.7898 7.64467 12.5699 7.23998 12.4637C7.03277 12.4093 6.48913 12.3747 6.30141 12.4019C6.19171 12.4192 6.18683 12.4241 6.18683 12.5007C6.18683 12.5748 6.19902 12.5872 6.3136 12.6415C7.06202 12.9923 7.53496 13.689 7.53984 14.4425C7.53984 14.7661 7.48864 14.9884 7.33506 15.3195C6.99864 16.0384 6.27703 16.5621 5.37015 16.7424C5.11418 16.7943 4.5169 16.7869 4.26093 16.7326C3.80261 16.6313 3.31504 16.4163 2.9323 16.1446C2.6617 15.9494 2.20095 15.485 2.00836 15.2108C1.36964 14.3017 1.07466 13.0986 1.22581 12.0239C1.35258 11.1469 1.70363 10.2749 2.20582 9.60538C2.28871 9.49421 2.61538 9.094 2.61538 9.094C2.61538 9.094 2.72996 8.99272 2.83479 8.89637C3.36868 8.40722 3.94157 8.05889 4.60467 7.81926C5.46523 7.50799 6.33798 7.42894 7.10346 7.58951C7.79581 7.7328 8.4394 8.08113 8.92941 8.57521C9.68271 9.33857 10.0118 10.4058 9.78997 11.3668C9.72171 11.6583 9.63151 11.9226 9.60226 11.9226C9.59007 11.9226 9.534 11.8485 9.47305 11.7571C9.27315 11.4533 8.74657 10.9098 8.65637 10.8851C8.63687 10.8604 8.39309 10.6998 8.31751 10.6257C8.23463 10.5516 7.91039 10.3564 7.63735 10.2428C7.37407 10.1341 7.01083 10.0377 6.70366 9.99324C6.49888 9.96359 5.68951 9.97594 5.58712 10.0081C5.45548 10.0451 5.24582 10.0772 5.02642 10.1538C4.35844 10.3885 3.78555 10.8357 3.38818 11.4335C2.74215 12.4019 2.6422 13.7458 3.13952 14.7513C3.46619 15.4134 3.98302 15.8704 4.65099 16.0853C4.82895 16.1446 4.91184 16.1545 5.24095 16.1668C5.48961 16.1742 5.67976 16.1668 5.77727 16.1495C6.01618 16.1026 6.01618 16.1026 6.01618 16.0161C6.01618 15.9396 6.00643 15.9346 5.80409 15.8531C5.49448 15.732 5.27751 15.5912 5.05323 15.3689C4.15854 14.4795 4.15123 13.1208 5.0386 12.2438C5.56762 11.7225 6.34285 11.5175 7.05227 11.7077C7.357 11.7917 7.77143 11.9943 8.04204 12.1944Z" fill="#6B7C5E"/>
</svg>
